<?xml version="1.0" encoding="iso-8859-1"?>
<!-- Uploaded to: SVG Repo, www.svgrepo.com, Generator: SVG Repo Mixer Tools -->
<svg fill="#000000" height="800px" width="800px" version="1.1" id="Layer_1" xmlns="http://www.w3.org/2000/svg" xmlns:xlink="http://www.w3.org/1999/xlink" 
	 viewBox="0 0 200.437 200.437" xml:space="preserve">
<g>
	<g>
		<g>
			<path d="M59.01,135.613l-18.251,18.252c-1.393,1.393-1.393,3.649,0,5.042c0.696,0.696,1.609,1.045,2.521,1.045
				c0.912,0,1.825-0.348,2.521-1.045l18.251-18.252c1.393-1.393,1.393-3.649,0-5.042S60.403,134.22,59.01,135.613z"/>
			<path d="M151.272,51.959c0.912,0,1.825-0.348,2.521-1.045l18.251-18.251c1.393-1.393,1.393-3.649,0-5.042
				c-1.393-1.393-3.649-1.393-5.042,0l-18.251,18.251c-1.393,1.393-1.393,3.649,0,5.042
				C149.447,51.611,150.359,51.959,151.272,51.959z"/>
			<path d="M153.793,135.613c-1.393-1.393-3.649-1.393-5.042,0c-1.393,1.393-1.393,3.649,0,5.042l18.251,18.252
				c0.696,0.696,1.609,1.045,2.521,1.045s1.825-0.348,2.521-1.045c1.393-1.393,1.393-3.649,0-5.042L153.793,135.613z"/>
			<path d="M59.01,50.915c0.696,0.696,1.609,1.045,2.521,1.045s1.825-0.348,2.521-1.045c1.393-1.393,1.393-3.649,0-5.042
				L45.801,27.622c-1.393-1.393-3.649-1.393-5.042,0c-1.393,1.393-1.393,3.649,0,5.042L59.01,50.915z"/>
			<path d="M196.871,89.384h-25.514c-1.971,0-3.566,1.597-3.566,3.566s1.595,3.566,3.566,3.566h25.514
				c1.971,0,3.566-1.597,3.566-3.566S198.843,89.384,196.871,89.384z"/>
			<path d="M106.919,33.636c1.971,0,3.566-1.597,3.566-3.566V4.258c0-1.969-1.595-3.566-3.566-3.566s-3.566,1.597-3.566,3.566V30.07
				C103.353,32.039,104.947,33.636,106.919,33.636z"/>
			<path d="M17.195,96.509h25.81c1.971,0,3.566-1.597,3.566-3.566s-1.595-3.566-3.566-3.566h-25.81
				c-1.971,0-3.566,1.597-3.566,3.566S15.224,96.509,17.195,96.509z"/>
			<path d="M106.919,153.414c-1.971,0-3.566,1.596-3.566,3.566v25.812c0,1.969,1.595,3.566,3.566,3.566s3.566-1.597,3.566-3.566
				V156.98C110.485,155.011,108.89,153.414,106.919,153.414z"/>
			<path d="M160.461,92.769c0-29.493-23.993-53.487-53.487-53.487S53.487,63.277,53.487,92.769c0,4.825,0.701,9.479,1.904,13.929
				c-13.539,5.755-22.647,18.488-23.264,32.667c-1.191-0.158-2.392-0.238-3.6-0.238C12.797,139.127,0,152.723,0,169.436
				c0,16.713,12.797,30.309,28.526,30.309l78.678-0.007c17.867-1.151,31.862-16.811,31.862-35.651
				c0-8.751-2.964-16.957-8.375-23.448C148.303,131.877,160.461,113.738,160.461,92.769z M131.935,164.087
				c0,15.09-11.063,27.625-24.961,28.526H28.526c-11.798,0-21.395-10.398-21.395-23.178c0-12.78,9.597-23.178,21.395-23.178
				c2.1,0,4.172,0.327,6.16,0.975c1.146,0.371,2.396,0.143,3.325-0.604c0.937-0.747,1.438-1.913,1.33-3.108
				c-0.076-0.86-0.118-1.733-0.118-2.612c0-11.74,7.355-22.391,18.469-27.352c8.128,19.197,27.156,32.699,49.282,32.699
				c5.853,0,11.473-0.979,16.748-2.724C129.015,148.962,131.935,156.247,131.935,164.087z M106.974,139.125
				c-25.56,0-46.356-20.794-46.356-46.356s20.796-46.356,46.356-46.356s46.355,20.794,46.355,46.356
				S132.534,139.125,106.974,139.125z"/>
		</g>
	</g>
</g>
</svg>